:SAMPLES-PER-SECOND 30
:FULLY-SPECIFIED
:DEGREES
94
root  -39.4812 37.2244 -27.8778 44.6678 -79.1352 -12.658
RightUpLeg  -77.7056 -31.1135 36.3257
RightLeg  31.5281 7.44317 4.66009
RightFoot  6.42426 1.84623 -11.4823
RightToes  0.00048216 0.542163 -0.142577
Spine  68.8948 -4.25048 6.07936
Spine1  8.26931 1.09516 -5.44123
HEad  -41.6853 3.50828 -12.5457
LeftShoulder1  5.1627 -22.5582 -12.6725
LeftArm  -57.2099 -62.9799 2.80821
LeftForeArm  -2.18019 -36.9961 -8.5741
LeftHand  -0.25398 0.0180481 5.50724
RightShoulder  3.88381 14.9915 14.1018
RightArm  -54.1872 30.909 2.77894
RightForeArm  -30.4798 47.136 13.8998
RightHand  0.265432 1.0006 4.73629
LeftUpLeg  -74.1311 23.7875 -25.8627
LeftLeg  37.2344 0.700949 0.945038
LeftFoot  0.131592 -1.16733 11.5698
LeftToes  1.06243e-005 4.65856e-005 -8.18505e-006
95
root  -38.905 37.4251 -27.5073 43.3567 -78.794 -14.5199
RightUpLeg  -73.515 -32.6225 34.1058
RightLeg  28.7024 7.51752 4.20879
RightFoot  8.16108 1.91406 -10.7605
RightToes  0.00048216 0.542163 -0.142577
Spine  67.4018 -3.83014 5.41935
Spine1  9.04291 0.880597 -4.98221
HEad  -41.3324 5.79698 -15.7339
LeftShoulder1  5.37309 -22.3264 -13.7646
LeftArm  -45.9311 -60.4277 -5.85097
LeftForeArm  -3.39563 -39.0064 -9.27474
LeftHand  -0.25398 0.0180481 5.50724
RightShoulder  4.15507 14.6615 16.1603
RightArm  -48.8282 28.1309 6.19824
RightForeArm  -30.7578 51.2714 16.0347
RightHand  0.143928 0.303922 2.93285
LeftUpLeg  -70.3688 24.7347 -25.2548
LeftLeg  35.0689 0.471995 0.720697
LeftFoot  0.518578 -1.36551 13.0544
LeftToes  1.06243e-005 4.65856e-005 -8.18505e-006
96
root  -38.3086 37.6412 -27.1457 42.2395 -78.5807 -16.6206
RightUpLeg  -68.6755 -33.4835 31.0551
RightLeg  25.5878 7.11115 3.47204
RightFoot  10.9686 2.10934 -10.2881
RightToes  0.00048216 0.542163 -0.142577
Spine  65.7881 -3.08329 4.66501
Spine1  9.30252 0.787252 -4.05297
HEad  -40.8474 8.24062 -19.4842
LeftShoulder1  5.77306 -22.0185 -15.7489
LeftArm  -35.6823 -56.5939 -14.0844
LeftForeArm  -3.51416 -42.2441 -10.3919
LeftHand  -0.25398 0.0180481 5.50724
RightShoulder  4.34933 13.9618 18.3638
RightArm  -43.7024 24.783 9.33005
RightForeArm  -29.2159 56.0461 19.033
RightHand  0.0527219 -0.568955 1.38806
LeftUpLeg  -66.3387 25.8166 -24.5471
LeftLeg  32.4884 0.140109 0.453059
LeftFoot  1.16307 -1.58686 14.3377
LeftToes  1.06243e-005 4.65856e-005 -8.18505e-006
97
root  -37.7109 37.8625 -26.8115 41.6331 -78.3893 -19.1824
RightUpLeg  -63.0411 -33.6091 27.17
RightLeg  21.9769 6.55019 2.71775
RightFoot  13.7926 1.93966 -8.28088
RightToes  0.00048216 0.542163 -0.142577
Spine  64.0029 -2.26002 3.93224
Spine1  9.26049 0.822554 -3.03903
HEad  -40.7809 11.1648 -23.3653
LeftShoulder1  6.5004 -21.8767 -18.9805
LeftArm  -27.9185 -51.2342 -19.7483
LeftForeArm  -2.15273 -46.7632 -12.0809
LeftHand  -0.25398 0.0180481 5.50724
RightShoulder  4.52931 13.3377 20.5048
RightArm  -39.2193 20.6334 12.0183
RightForeArm  -25.9875 61.1885 23.3123
RightHand  -0.00515777 -2.09845 0.384324
LeftUpLeg  -62.413 27.2336 -23.9672
LeftLeg  29.7171 -0.526412 0.0254519
LeftFoot  2.18188 -1.87234 15.5716
LeftToes  1.06243e-005 4.65856e-005 -8.18505e-006
98
root  -37.1285 38.0493 -26.5417 39.8937 -78.1363 -20.6469
RightUpLeg  -56.2082 -32.1406 20.9883
RightLeg  19.4736 5.56666 2.08462
RightFoot  13.9969 0.964842 -3.79194
RightToes  0.00048216 0.542163 -0.142577
Spine  62.4345 -1.63804 3.07037
Spine1  8.81431 0.775283 -2.3473
HEad  -40.8225 14.8451 -26.9188
LeftShoulder1  7.23751 -21.488 -22.5657
LeftArm  -22.6173 -44.6744 -23.1832
LeftForeArm  0.397586 -51.9737 -14.4153
LeftHand  -0.25398 0.0180481 5.50724
RightShoulder  4.78858 12.9412 22.8787
RightArm  -35.3361 16.0258 14.0623
RightForeArm  -20.7671 66.1582 29.2907
RightHand  -0.0296211 -3.98969 0.0331416
LeftUpLeg  -58.6031 28.8522 -23.6124
LeftLeg  27.1482 -1.54437 -0.517414
LeftFoot  3.37134 -2.24623 17.0985
LeftToes  1.06243e-005 4.65856e-005 -8.18505e-006
99
root  -36.5464 38.189 -26.3593 36.887 -77.8618 -20.9152
RightUpLeg  -49.3758 -27.9355 13.007
RightLeg  21.2599 3.71601 1.34662
RightFoot  10.0755 -0.177147 1.35091
RightToes  0.00048216 0.542163 -0.142577
Spine  61.2039 -1.12827 2.17011
Spine1  7.86385 0.643799 -1.97048
HEad  -40.6376 18.8089 -30.2275
LeftShoulder1  7.33632 -20.4303 -24.3406
LeftArm  -19.2183 -37.1722 -27.3465
LeftForeArm  4.52 -57.5565 -17.5954
LeftHand  -0.25398 0.0180481 5.50724
RightShoulder  4.87447 12.1081 25.1045
RightArm  -31.6045 11.5724 16.1165
RightForeArm  -12.3789 70.6906 37.8729
RightHand  -0.0421772 -5.804 -0.0257081
LeftUpLeg  -54.6902 30.2076 -22.9512
LeftLeg  24.8623 -2.41729 -0.886683
LeftFoot  4.63174 -2.62982 18.377
LeftToes  1.06243e-005 4.65856e-005 -8.18505e-006
100
root  -35.9554 38.3001 -26.2619 33.9467 -77.5826 -21.2556
RightUpLeg  -44.2559 -21.7703 6.14122
RightLeg  28.2933 1.11864 0.396372
RightFoot  3.8729 -0.560886 4.31565
RightToes  0.00048216 0.542163 -0.142577
Spine  59.2722 -0.648299 1.73607
Spine1  7.8558 0.790337 -2.02962
HEad  -40.8475 22.038 -33.0539
LeftShoulder1  6.93386 -19.4421 -23.9105
LeftArm  -18.0848 -29.3059 -32.4653
LeftForeArm  10.6808 -63.0387 -21.8765
LeftHand  -0.25398 0.0180481 5.50724
RightShoulder  4.64979 10.6808 26.7227
RightArm  -28.3924 7.69031 18.4073
RightForeArm  -0.151135 74.3846 49.9841
RightHand  -0.0446968 -7.42835 -0.463812
LeftUpLeg  -50.6602 31.094 -21.5845
LeftLeg  22.7388 -2.78652 -0.949654
LeftFoot  6.06882 -2.90872 18.5882
LeftToes  1.06243e-005 4.65856e-005 -8.18505e-006
101
root  -35.3899 38.3812 -26.2487 30.5259 -77.2069 -21.0914
RightUpLeg  -40.532 -16.2833 2.39277
RightLeg  37.5883 -0.470214 -0.650899
RightFoot  -1.62778 -0.458221 5.21599
RightToes  0.00048216 0.542163 -0.142577
Spine  57.1812 -0.650769 1.35874
Spine1  7.28557 0.580295 -2.63578
HEad  -41.1951 25.9877 -34.6691
LeftShoulder1  7.101 -18.4895 -26.1068
LeftArm  -17.9355 -20.6039 -33.3703
LeftForeArm  17.5833 -68.063 -27.773
LeftHand  -0.25398 0.0180481 5.50724
RightShoulder  5.02854 10.7479 29.295
RightArm  -24.9768 3.80463 18.9742
RightForeArm  13.4071 76.6158 63.9112
RightHand  -0.0156104 -8.84217 -1.54032
LeftUpLeg  -46.6611 31.8193 -20.0488
LeftLeg  20.777 -3.11416 -0.969683
LeftFoot  7.58534 -3.12984 18.3286
LeftToes  1.06243e-005 4.65856e-005 -8.18505e-006
102
root  -34.873 38.4352 -26.3066 25.4355 -76.588 -19.3647
RightUpLeg  -36.4579 -12.2878 0.668255
RightLeg  45.9354 0.0547209 -0.213404
RightFoot  -5.76352 -0.344315 6.29506
RightToes  0.00048216 0.542163 -0.142577
Spine  54.8264 -0.284143 0.361154
Spine1  7.05451 -0.116472 -1.3976
HEad  -41.6351 30.3628 -36.6118
LeftShoulder1  7.93454 -17.1383 -32.3797
LeftArm  -18.2728 -12.8997 -29.4225
LeftForeArm  23.5005 -71.6315 -34.4012
LeftHand  -0.25398 0.0180481 5.50724
RightShoulder  5.46136 11.5951 30.2055
RightArm  -21.8106 0.461089 19.7824
RightForeArm  25.8065 77.6009 76.5543
RightHand  0.0432575 -10.2382 -2.68171
LeftUpLeg  -42.407 32.6494 -18.7771
LeftLeg  18.7569 -3.98159 -1.17334
LeftFoot  9.0301 -3.46536 18.7933
LeftToes  1.06243e-005 4.65856e-005 -8.18505e-006
103
root  -34.4036 38.4436 -26.42 18.4267 -75.4691 -15.5902
RightUpLeg  -31.7879 -9.90099 -0.0203373
RightLeg  52.5501 2.98992 3.85955
RightFoot  -8.92892 -0.247008 9.02997
RightToes  0.00048216 0.542163 -0.142577
Spine  52.3607 0.0348382 -0.341462
Spine1  6.75053 -0.5747 -0.357588
HEad  -41.0412 34.442 -38.7592
LeftShoulder1  8.6014 -16.0288 -37.8664
LeftArm  -18.353 -5.91307 -25.6846
LeftForeArm  27.6904 -73.61 -39.8595
LeftHand  -0.25398 0.0180481 5.50724
RightShoulder  5.66182 11.7847 31.083
RightArm  -19.216 -2.60654 20.6764
RightForeArm  38.8308 77.945 88.7919
RightHand  0.0910893 -11.9692 -3.02427
LeftUpLeg  -37.6145 32.4473 -17.2544
LeftLeg  16.5485 -4.41984 -1.57738
LeftFoot  10.5093 -3.86922 19.5141
LeftToes  1.06243e-005 4.65856e-005 -8.18505e-006
104
root  -33.9389 38.3583 -26.5737 11.4694 -73.7433 -11.1942
RightUpLeg  -27.0381 -8.6418 0.0442561
RightLeg  57.2318 6.93408 10.9895
RightFoot  -10.0343 -0.244576 14.2276
RightToes  0.00048216 0.542163 -0.142577
Spine  49.2715 -0.00616481 -0.244446
Spine1  6.66912 -0.276801 -1.05912
HEad  -39.4443 38.2702 -41.1149
LeftShoulder1  8.89566 -15.4861 -40.5536
LeftArm  -18.1716 0.805245 -24.3925
LeftForeArm  31.189 -74.7952 -44.0832
LeftHand  -0.25398 0.0180481 5.50724
RightShoulder  5.65356 11.1994 32.507
RightArm  -17.5134 -5.63231 21.621
RightForeArm  52.7701 77.8149 100.454
RightHand  0.0760666 -13.9219 -2.32748
LeftUpLeg  -32.8537 29.312 -14.5402
LeftLeg  14.6495 -2.11953 -2.4069
LeftFoot  12.1137 -4.13955 19.392
LeftToes  1.06243e-005 4.65856e-005 -8.18505e-006
